<svg width="135" height="32" viewBox="0 0 135 32" fill="none" xmlns="http://www.w3.org/2000/svg">
<path d="M25.0666 14.6667H17.5999C16.1064 14.6667 15.3597 14.6667 14.7893 14.9573C14.2875 15.213 13.8796 15.6209 13.6239 16.1227C13.3333 16.6931 13.3333 17.4399 13.3333 18.9334V22.2857C13.3333 23.7792 13.3333 24.5259 13.6239 25.0964C13.8796 25.5981 14.2875 26.0061 14.7893 26.2618C15.3597 26.5524 16.1064 26.5524 17.5999 26.5524H19.9958C20.4926 26.5524 20.741 26.5524 20.9807 26.5966C21.1934 26.6358 21.4005 26.7007 21.5975 26.7899C21.8195 26.8905 22.0235 27.0323 22.4314 27.3159L23.8337 28.2908C24.2227 28.5613 24.4172 28.6965 24.5755 28.7183C24.8569 28.7571 25.1321 28.6133 25.2608 28.3601C25.3333 28.2177 25.3333 27.9808 25.3333 27.507C25.3333 27.2402 25.3333 27.1068 25.3703 27.0003C25.4366 26.8099 25.5794 26.6643 25.7685 26.5943C25.8742 26.5552 26.0122 26.5525 26.2882 26.5471C26.933 26.5345 27.3425 26.4922 27.6871 26.3494C28.3405 26.0788 28.8596 25.5596 29.1303 24.9062C29.3333 24.4162 29.3333 23.7949 29.3333 22.5524V18.9334C29.3333 17.4399 29.3333 16.6931 29.0426 16.1227C28.7869 15.6209 28.379 15.213 27.8772 14.9573C27.3068 14.6667 26.5601 14.6667 25.0666 14.6667Z" fill="#158D6D"/>
<path d="M25.3334 13.3334L16.8404 13.3334C16.0621 13.3332 15.5596 13.3331 15.1275 13.4297C13.6154 13.7677 12.4344 14.9486 12.0964 16.4608C11.9999 16.8929 11.9999 17.3954 12.0001 18.1736L12.0001 21.35L9.23307 24.1516C8.66113 24.7307 8.37516 25.0203 8.12935 25.0407C7.9161 25.0584 7.7073 24.9727 7.56803 24.8102C7.40749 24.623 7.40749 24.216 7.40749 23.4021V21.3222C7.40749 20.592 6.80951 20.0636 6.08702 19.9578C4.33841 19.7017 2.96512 18.3284 2.70898 16.5797C2.66675 16.2914 2.66675 15.9474 2.66675 15.2593V9.06669C2.66675 6.82648 2.66675 5.70637 3.10272 4.85072C3.48622 4.09808 4.09814 3.48615 4.85079 3.10266C5.70643 2.66669 6.82654 2.66669 9.06675 2.66669H18.9334C21.1736 2.66669 22.2937 2.66669 23.1494 3.10266C23.902 3.48615 24.5139 4.09808 24.8974 4.85072C25.3334 5.70637 25.3334 6.82648 25.3334 9.06669V13.3334Z" fill="#FFAF54"/>
<path d="M17.4121 14.6667H16.9334C16.03 14.6667 15.6876 14.6708 15.4184 14.7309C15.033 14.8171 14.6798 14.9854 14.3781 15.2167C14.5063 15.1184 14.6439 15.0315 14.7894 14.9573C15.3354 14.6791 16.0429 14.6672 17.4121 14.6667Z" fill="#FFAF54"/>
<path d="M13.8834 15.7113C13.6521 16.0131 13.4838 16.3663 13.3977 16.7517C13.3375 17.0209 13.3334 17.3633 13.3334 18.2667V18.7454C13.3339 17.3762 13.3459 16.6687 13.6241 16.1227C13.6982 15.9772 13.7851 15.8396 13.8834 15.7113Z" fill="#FFAF54"/>
<path d="M50.76 23.24C49.7333 23.24 48.8067 23.04 47.98 22.64C47.1533 22.2267 46.4933 21.6067 46 20.78C45.52 19.9533 45.28 18.9067 45.28 17.64V9H47.84V17.66C47.84 18.7533 48.1 19.5667 48.62 20.1C49.1533 20.6333 49.8867 20.9 50.82 20.9C51.74 20.9 52.4667 20.6333 53 20.1C53.5333 19.5667 53.8 18.7533 53.8 17.66V9H56.36V17.64C56.36 18.9067 56.1067 19.9533 55.6 20.78C55.0933 21.6067 54.4133 22.2267 53.56 22.64C52.72 23.04 51.7867 23.24 50.76 23.24ZM58.9133 23V13.08H61.1733L61.3733 14.76C61.6799 14.1733 62.1199 13.7067 62.6933 13.36C63.2799 13.0133 63.9666 12.84 64.7533 12.84C65.9799 12.84 66.9333 13.2267 67.6133 14C68.2933 14.7733 68.6333 15.9067 68.6333 17.4V23H66.0733V17.64C66.0733 16.7867 65.8999 16.1333 65.5533 15.68C65.2066 15.2267 64.6666 15 63.9333 15C63.2133 15 62.6199 15.2533 62.1533 15.76C61.6999 16.2667 61.4733 16.9733 61.4733 17.88V23H58.9133ZM72.4613 11.54C71.9946 11.54 71.6079 11.4 71.3013 11.12C71.0079 10.84 70.8613 10.4867 70.8613 10.06C70.8613 9.63333 71.0079 9.28667 71.3013 9.02C71.6079 8.74 71.9946 8.6 72.4613 8.6C72.9279 8.6 73.3079 8.74 73.6013 9.02C73.9079 9.28667 74.0613 9.63333 74.0613 10.06C74.0613 10.4867 73.9079 10.84 73.6013 11.12C73.3079 11.4 72.9279 11.54 72.4613 11.54ZM71.1813 23V13.08H73.7413V23H71.1813ZM80.8333 23C79.7933 23 78.9599 22.7467 78.3333 22.24C77.7066 21.7333 77.3933 20.8333 77.3933 19.54V15.22H75.6933V13.08H77.3933L77.6933 10.42H79.9533V13.08H82.6333V15.22H79.9533V19.56C79.9533 20.04 80.0533 20.3733 80.2533 20.56C80.4666 20.7333 80.8266 20.82 81.3333 20.82H82.5733V23H80.8333ZM86.0713 27.4L88.3713 22.34H87.7713L83.9113 13.08H86.6913L89.4713 20.06L92.3713 13.08H95.0913L88.7913 27.4H86.0713Z" fill="#0D1116"/>
<path d="M96.8248 23V9H99.3848V14.82H105.665V9H108.225V23H105.665V16.9H99.3848V23H96.8248ZM114.606 23.24C113.366 23.24 112.406 22.8533 111.726 22.08C111.059 21.3067 110.726 20.1733 110.726 18.68V13.08H113.266V18.44C113.266 19.2933 113.439 19.9467 113.786 20.4C114.133 20.8533 114.679 21.08 115.426 21.08C116.133 21.08 116.713 20.8267 117.166 20.32C117.633 19.8133 117.866 19.1067 117.866 18.2V13.08H120.426V23H118.166L117.966 21.32C117.659 21.9067 117.213 22.3733 116.626 22.72C116.053 23.0667 115.379 23.24 114.606 23.24ZM128.934 23.24C128.187 23.24 127.534 23.1 126.974 22.82C126.414 22.54 125.961 22.1467 125.614 21.64L125.334 23H123.054V8.6H125.614V14.5C125.934 14.06 126.354 13.6733 126.874 13.34C127.407 13.0067 128.094 12.84 128.934 12.84C129.867 12.84 130.701 13.0667 131.434 13.52C132.167 13.9733 132.747 14.5933 133.174 15.38C133.601 16.1667 133.814 17.06 133.814 18.06C133.814 19.06 133.601 19.9533 133.174 20.74C132.747 21.5133 132.167 22.1267 131.434 22.58C130.701 23.02 129.867 23.24 128.934 23.24ZM128.394 21C129.207 21 129.881 20.7267 130.414 20.18C130.947 19.6333 131.214 18.9267 131.214 18.06C131.214 17.1933 130.947 16.48 130.414 15.92C129.881 15.36 129.207 15.08 128.394 15.08C127.567 15.08 126.887 15.36 126.354 15.92C125.834 16.4667 125.574 17.1733 125.574 18.04C125.574 18.9067 125.834 19.62 126.354 20.18C126.887 20.7267 127.567 21 128.394 21Z" fill="#158D6D"/>
</svg>
